<svg width="40" height="32" viewBox="0 0 40 32" fill="none" xmlns="http://www.w3.org/2000/svg">
<path d="M14.4 24L20 19.8L25.5 24L23.4 17.2L29 12.8H22.2L20 6L17.8 12.8H11L16.5 17.2L14.4 24ZM4 32C2.9 32 1.95833 31.6083 1.175 30.825C0.391667 30.0417 0 29.1 0 28V21.25C0 20.8833 0.116667 20.5667 0.35 20.3C0.583333 20.0333 0.883333 19.8667 1.25 19.8C2.05 19.5333 2.70833 19.05 3.225 18.35C3.74167 17.65 4 16.8667 4 16C4 15.1333 3.74167 14.35 3.225 13.65C2.70833 12.95 2.05 12.4667 1.25 12.2C0.883333 12.1333 0.583333 11.9667 0.35 11.7C0.116667 11.4333 0 11.1167 0 10.75V4C0 2.9 0.391667 1.95833 1.175 1.175C1.95833 0.391667 2.9 0 4 0H36C37.1 0 38.0417 0.391667 38.825 1.175C39.6083 1.95833 40 2.9 40 4V10.75C40 11.1167 39.8833 11.4333 39.65 11.7C39.4167 11.9667 39.1167 12.1333 38.75 12.2C37.95 12.4667 37.2917 12.95 36.775 13.65C36.2583 14.35 36 15.1333 36 16C36 16.8667 36.2583 17.65 36.775 18.35C37.2917 19.05 37.95 19.5333 38.75 19.8C39.1167 19.8667 39.4167 20.0333 39.65 20.3C39.8833 20.5667 40 20.8833 40 21.25V28C40 29.1 39.6083 30.0417 38.825 30.825C38.0417 31.6083 37.1 32 36 32H4Z" fill="#356C8E"/>
</svg>
