<svg width="40" height="33" viewBox="0 0 40 33" fill="none" xmlns="http://www.w3.org/2000/svg">
<path d="M7.27273 32.7273C6.75758 32.7273 6.32576 32.553 5.97727 32.2045C5.62879 31.8561 5.45455 31.4242 5.45455 30.9091V29.0909C3.93939 29.0909 2.65152 28.5606 1.59091 27.5C0.530303 26.4394 0 25.1515 0 23.6364V14.5455C0 13.5455 0.356061 12.6894 1.06818 11.9773C1.7803 11.2652 2.63636 10.9091 3.63636 10.9091C4.63636 10.9091 5.49242 11.2652 6.20455 11.9773C6.91667 12.6894 7.27273 13.5455 7.27273 14.5455V21.8182H32.7273V14.5455C32.7273 13.5455 33.0833 12.6894 33.7955 11.9773C34.5076 11.2652 35.3636 10.9091 36.3636 10.9091C37.3636 10.9091 38.2197 11.2652 38.9318 11.9773C39.6439 12.6894 40 13.5455 40 14.5455V23.6364C40 25.1515 39.4697 26.4394 38.4091 27.5C37.3485 28.5606 36.0606 29.0909 34.5455 29.0909V30.9091C34.5455 31.4242 34.3712 31.8561 34.0227 32.2045C33.6742 32.553 33.2424 32.7273 32.7273 32.7273C32.2121 32.7273 31.7803 32.553 31.4318 32.2045C31.0833 31.8561 30.9091 31.4242 30.9091 30.9091V29.0909H9.09091V30.9091C9.09091 31.4242 8.91667 31.8561 8.56818 32.2045C8.2197 32.553 7.78788 32.7273 7.27273 32.7273ZM10.9091 18.1818V14.5455C10.9091 12.8788 10.4015 11.3864 9.38636 10.0682C8.37121 8.75 7.06061 7.81818 5.45455 7.27273V5.45455C5.45455 3.93939 5.98485 2.65152 7.04545 1.59091C8.10606 0.530303 9.39394 0 10.9091 0H29.0909C30.6061 0 31.8939 0.530303 32.9545 1.59091C34.0152 2.65152 34.5455 3.93939 34.5455 5.45455V7.27273C32.9091 7.69697 31.5909 8.58333 30.5909 9.93182C29.5909 11.2803 29.0909 12.8182 29.0909 14.5455V18.1818H10.9091Z" fill="#356C8E"/>
</svg>
