<svg width="40" height="40" viewBox="0 0 40 40" fill="none" xmlns="http://www.w3.org/2000/svg">
<path d="M14 24.5C13.3 24.5 12.7083 24.2583 12.225 23.775C11.7417 23.2917 11.5 22.7 11.5 22C11.5 21.3 11.7417 20.7083 12.225 20.225C12.7083 19.7417 13.3 19.5 14 19.5C14.7 19.5 15.2917 19.7417 15.775 20.225C16.2583 20.7083 16.5 21.3 16.5 22C16.5 22.7 16.2583 23.2917 15.775 23.775C15.2917 24.2583 14.7 24.5 14 24.5ZM26 24.5C25.3 24.5 24.7083 24.2583 24.225 23.775C23.7417 23.2917 23.5 22.7 23.5 22C23.5 21.3 23.7417 20.7083 24.225 20.225C24.7083 19.7417 25.3 19.5 26 19.5C26.7 19.5 27.2917 19.7417 27.775 20.225C28.2583 20.7083 28.5 21.3 28.5 22C28.5 22.7 28.2583 23.2917 27.775 23.775C27.2917 24.2583 26.7 24.5 26 24.5ZM20 36C24.4667 36 28.25 34.45 31.35 31.35C34.45 28.25 36 24.4667 36 20C36 19.2 35.95 18.425 35.85 17.675C35.75 16.925 35.5667 16.2 35.3 15.5C34.6 15.6667 33.9 15.7917 33.2 15.875C32.5 15.9583 31.7667 16 31 16C27.9667 16 25.1 15.35 22.4 14.05C19.7 12.75 17.4 10.9333 15.5 8.6C14.4333 11.2 12.9083 13.4583 10.925 15.375C8.94167 17.2917 6.63333 18.7333 4 19.7V20C4 24.4667 5.55 28.25 8.65 31.35C11.75 34.45 15.5333 36 20 36ZM20 40C17.2333 40 14.6333 39.475 12.2 38.425C9.76667 37.375 7.65 35.95 5.85 34.15C4.05 32.35 2.625 30.2333 1.575 27.8C0.525 25.3667 0 22.7667 0 20C0 17.2333 0.525 14.6333 1.575 12.2C2.625 9.76667 4.05 7.65 5.85 5.85C7.65 4.05 9.76667 2.625 12.2 1.575C14.6333 0.525 17.2333 0 20 0C22.7667 0 25.3667 0.525 27.8 1.575C30.2333 2.625 32.35 4.05 34.15 5.85C35.95 7.65 37.375 9.76667 38.425 12.2C39.475 14.6333 40 17.2333 40 20C40 22.7667 39.475 25.3667 38.425 27.8C37.375 30.2333 35.95 32.35 34.15 34.15C32.35 35.95 30.2333 37.375 27.8 38.425C25.3667 39.475 22.7667 40 20 40Z" fill="#356C8E"/>
</svg>
