<svg width="18" height="18" viewBox="0 0 18 18" fill="none" xmlns="http://www.w3.org/2000/svg">
<path d="M0.692261 11.8692C0.692261 9.76791 0.692261 7.64188 0.692261 5.54056C0.692261 5.49112 0.716982 5.44168 0.716982 5.39224C0.741703 5.19446 0.741703 4.97197 0.741703 4.7742C0.766425 4.18089 0.890031 3.6123 1.0878 3.06843C1.40918 2.27735 1.90361 1.63459 2.54636 1.14017C3.31272 0.546854 4.20269 0.274919 5.1421 0.176034C5.73541 0.126591 6.35345 0.126591 6.94676 0.10187C7.16925 0.10187 7.36702 0.10187 7.58951 0.10187C7.63896 0.10187 7.6884 0.0771484 7.73784 0.0771484C8.77614 0.0771484 9.83915 0.0771484 10.9022 0.0771484C10.9269 0.0771484 10.9763 0.10187 11.0011 0.10187C11.5696 0.126591 12.1382 0.126591 12.7316 0.151312C13.1271 0.176034 13.4979 0.200755 13.8935 0.250198C14.4373 0.324362 14.9565 0.497411 15.4262 0.744624C15.9453 1.01656 16.3903 1.36266 16.7611 1.83236C17.1072 2.2279 17.3544 2.69761 17.5275 3.16732C17.7994 3.90896 17.8983 4.70004 17.8983 5.49112C17.8983 5.56528 17.923 5.63945 17.923 5.68889C17.923 7.71604 17.923 9.76791 17.923 11.7951C17.923 11.8198 17.8983 11.8445 17.8983 11.8692C17.8736 12.1164 17.8736 12.3884 17.8489 12.6356C17.8241 12.9322 17.7994 13.2536 17.75 13.5503C17.5275 14.5391 17.1072 15.4044 16.3409 16.0966C15.8712 16.5168 15.3767 16.8135 14.7834 17.0113C14.0171 17.2832 13.2507 17.3574 12.4349 17.3574C12.3607 17.3574 12.2866 17.3821 12.2371 17.3821C10.3089 17.3574 8.35587 17.3574 6.37817 17.3574C6.35345 17.3574 6.304 17.3326 6.27928 17.3326C5.78486 17.3079 5.31515 17.2832 4.82072 17.2338C4.30158 17.1843 3.83187 17.036 3.36216 16.8135C2.79357 16.5416 2.32387 16.1707 1.90361 15.701C1.60695 15.3549 1.35974 14.9594 1.18669 14.5391C0.86531 13.748 0.741703 12.9075 0.741703 12.0423C0.716982 11.9681 0.692261 11.9187 0.692261 11.8692ZM12.2371 15.7752C12.6079 15.7258 12.954 15.701 13.3249 15.6763C13.844 15.6269 14.3384 15.5033 14.8081 15.2313C15.3273 14.9594 15.6981 14.5391 15.9453 14.02C16.1678 13.5503 16.2667 13.0558 16.3161 12.5614C16.3656 12.067 16.3903 11.5478 16.3903 11.0534C16.3903 9.37237 16.3656 7.6666 16.3656 5.96083C16.3656 5.39223 16.3409 4.82364 16.242 4.25505C16.1184 3.63702 15.8712 3.09315 15.4262 2.62345C15.0306 2.2279 14.5609 1.98069 14.0171 1.85708C13.3496 1.68404 12.6821 1.65931 12.0146 1.65931C10.1358 1.63459 8.25699 1.68404 6.37817 1.68404C5.85902 1.68404 5.33987 1.70876 4.82072 1.83236C4.05436 2.00541 3.41161 2.37623 2.9419 3.01899C2.57108 3.56286 2.39803 4.18089 2.34859 4.82364C2.29915 5.49112 2.29915 6.1586 2.27443 6.82607C2.27443 7.44411 2.27443 8.06214 2.27443 8.70489C2.29915 9.94096 2.32387 11.1523 2.34859 12.3884C2.34859 12.9075 2.4722 13.4267 2.69469 13.9211C2.96662 14.5391 3.41161 15.0088 4.00492 15.3055C4.47462 15.5527 4.99377 15.6516 5.51292 15.701C6.05679 15.7505 6.60066 15.7752 7.16925 15.7752C8.8503 15.7999 10.5314 15.7752 12.2371 15.7752Z" fill="#356C8E"/>
<path fill-rule="evenodd" clip-rule="evenodd" d="M4.87024 8.72956C4.87024 6.28215 6.84795 4.18084 9.51785 4.27972C11.7922 4.37861 13.8194 6.23271 13.7699 8.85317C13.7205 11.2264 11.8417 13.2041 9.24592 13.1794C6.84795 13.13 4.89496 11.2264 4.87024 8.72956ZM12.163 8.72956C12.1878 7.1474 10.8775 5.86189 9.32008 5.86189C7.68847 5.88661 6.4524 7.12267 6.4524 8.72956C6.4524 10.287 7.63903 11.4984 9.14703 11.5725C10.8775 11.6714 12.2125 10.2128 12.163 8.72956Z" fill="#356C8E"/>
<path fill-rule="evenodd" clip-rule="evenodd" d="M13.4 3.77894C13.3205 3.22271 13.9297 2.61351 14.5654 2.63999C15.0951 2.66648 15.6778 3.14325 15.6514 3.80543C15.6249 4.36166 15.1481 4.91789 14.4859 4.8914C13.9562 4.8914 13.347 4.41463 13.4 3.77894Z" fill="#356C8E"/>
</svg>
