<svg xmlns="http://www.w3.org/2000/svg" viewBox="0 0 160.28 74.31"><defs><style>.cls-1{isolation:isolate;}.cls-2{fill:#575756;}.cls-3{fill:#d60b52;}.cls-4{fill:#f39200;}.cls-5{fill:#9a1915;}.cls-5,.cls-6{mix-blend-mode:multiply;}.cls-6{fill:#a07843;}.cls-7{fill:#00a19a;}.cls-8{fill:#33698d;}</style></defs><g class="cls-1"><g id="Layer_1" data-name="Layer 1"><path class="cls-2" d="M63.05,70.13v-6h-7V62.5H72.39v1.58h-7v5.17a.75.75,0,0,1-.83.87Z" transform="translate(-0.51 -1.17)"/><path class="cls-2" d="M77.08,52.89s1.07,3.86-3.31,8.11l1.09.87a14.78,14.78,0,0,0,3.66-3.72,20,20,0,0,1,3,3.6L83.37,60a30.05,30.05,0,0,0-4-3.43A7.63,7.63,0,0,0,80,52.89Z" transform="translate(-0.51 -1.17)"/><path class="cls-2" d="M85,64.15V51.92h2.32v4.63h2.58V58H87.36v5.53s0,.58-1.07.58Z" transform="translate(-0.51 -1.17)"/><path class="cls-2" d="M87.47,68.62v1.6H79.12s-.89-.1-.89-1.42V64.28h2.4v4.34Z" transform="translate(-0.51 -1.17)"/><path class="cls-2" d="M103.81,68.62v1.6H95.06s-.88-.1-.88-1.42V64.28h2.4v4.34Z" transform="translate(-0.51 -1.17)"/><path class="cls-2" d="M158.45,68.62v1.6H150.1s-.89-.1-.89-1.42V64.28h2.4v4.34Z" transform="translate(-0.51 -1.17)"/><path class="cls-2" d="M90.78,61.27h16.29v1.58h-6.29v3.26s0,.65-.6.7-1.72,0-1.72,0v-4H90.78Z" transform="translate(-0.51 -1.17)"/><path class="cls-2" d="M145.56,55.06V53.62h8.16a23.92,23.92,0,0,1-.91,6.37h-1.88a19.4,19.4,0,0,0,.42-4.93Z" transform="translate(-0.51 -1.17)"/><path class="cls-2" d="M160.78,59.4V57.84h-2.63V52h-2.3V61a29.54,29.54,0,0,1-6.36.42V57.66h-2.28v3.79h-3.28V63h5.77a30,30,0,0,0,6.15-.71v3.82h1.52c.94,0,.83-1,.83-1V59.4Z" transform="translate(-0.51 -1.17)"/><path class="cls-2" d="M66.86,55.19H61.62v-2.4H59.21V59.5a1.13,1.13,0,0,0,.93,1h9.12V52.79h-2.4Zm0,3.78H61.62V56.76h5.25Z" transform="translate(-0.51 -1.17)"/><path class="cls-2" d="M94.1,58.54s0,1.05,1.35,1.05h8.28V52.76H94.1Zm2.42-4.19h4.81V58H96.52Z" transform="translate(-0.51 -1.17)"/><path class="cls-2" d="M125.44,59.81V58.3h-2.69V52h-2.32V63.79a23.76,23.76,0,0,1-5.09.33V62.3a3.76,3.76,0,0,0,3-3.53,3.63,3.63,0,0,0-2.12-3.21h2.67V54.11h-3.53V52.47h-2.42s0,1.64,0,1.64l-3.41,0v1.43h2.67a3.61,3.61,0,0,0-2.12,3.21,3.76,3.76,0,0,0,3,3.53v1.82h-4.36v1.59h5.9a31.88,31.88,0,0,0,5.82-.61V70h1.5c1,0,.85-.84.85-.84V59.81Zm-13.12-1a1.9,1.9,0,1,1,1.88,2.16A2,2,0,0,1,112.32,58.77Z" transform="translate(-0.51 -1.17)"/><path class="cls-2" d="M141.14,69.06l0-17.09h-2.32V63.8a27,27,0,0,1-5.13.37V62.31a3.78,3.78,0,0,0,3-3.54,3.61,3.61,0,0,0-2.12-3.21h2.67V54.11h-3.52V52.47h-2.43s0,1.64,0,1.64l-3.41,0v1.43h2.67a3.63,3.63,0,0,0-2.12,3.21,3.77,3.77,0,0,0,2.95,3.52v1.88H127v1.59h5.89a32.1,32.1,0,0,0,5.87-.63v4.76l1.5,0C141.3,69.91,141.14,69.06,141.14,69.06ZM130.68,58.77a1.9,1.9,0,1,1,1.88,2.16A2,2,0,0,1,130.68,58.77Z" transform="translate(-0.51 -1.17)"/><path class="cls-2" d="M59.32,46.92c-.07,0-.1,0-.1-.09v-6c0-.08,0-.11.1-.11h1.39a2.32,2.32,0,0,1,1.43.38,1.39,1.39,0,0,1,.51,1.18,1.58,1.58,0,0,1-.2.84,1.33,1.33,0,0,1-.56.54,1.27,1.27,0,0,1,.41.24,1.5,1.5,0,0,1,.29.33,1.27,1.27,0,0,1,.17.4,1.51,1.51,0,0,1,.06.41,1.65,1.65,0,0,1-.6,1.39,2.8,2.8,0,0,1-1.72.46Zm.8-2.76V46h.4a1.75,1.75,0,0,0,1.08-.25.9.9,0,0,0,0-1.38,1.94,1.94,0,0,0-1.14-.25Zm0-2.55v1.66h.43a1.3,1.3,0,0,0,.91-.25.85.85,0,0,0,.26-.64.72.72,0,0,0-.23-.55,1.14,1.14,0,0,0-.8-.22Z" transform="translate(-0.51 -1.17)"/><path class="cls-2" d="M67.58,46.58a2.07,2.07,0,0,1-.67.36,2.52,2.52,0,0,1-.79.11,2.27,2.27,0,0,1-1.45-.47,1.78,1.78,0,0,1-.58-.78,3,3,0,0,1-.19-1.09V40.86a.13.13,0,0,1,0-.08.08.08,0,0,1,.07,0h.72a.09.09,0,0,1,.07,0,.1.1,0,0,1,0,.07v3.87a1.61,1.61,0,0,0,.34,1,1.18,1.18,0,0,0,1,.41,1.2,1.2,0,0,0,1-.4,1.67,1.67,0,0,0,.32-1.06V40.84a.11.11,0,0,1,0-.07.09.09,0,0,1,.07,0h.72a.06.06,0,0,1,.06,0,.13.13,0,0,1,0,.08v3.85a2.78,2.78,0,0,1-.19,1.08A1.81,1.81,0,0,1,67.58,46.58Z" transform="translate(-0.51 -1.17)"/><path class="cls-2" d="M72.45,46.47a1.57,1.57,0,0,1-.54.39,1.77,1.77,0,0,1-.69.19,1.54,1.54,0,0,1-.43,0,3.41,3.41,0,0,1-.46,0l-.4-.08a1.07,1.07,0,0,1-.26-.09.47.47,0,0,1-.15-.08.23.23,0,0,1,0-.12l0-.61s0-.07,0-.08.06,0,.12,0l.28.09a2.23,2.23,0,0,0,.39.09,3.29,3.29,0,0,0,.44.05,1.64,1.64,0,0,0,.4,0,1.37,1.37,0,0,0,.38-.15.69.69,0,0,0,.23-.22.86.86,0,0,0,.11-.28,1.06,1.06,0,0,0,0-.31.84.84,0,0,0-.2-.43,1.87,1.87,0,0,0-.57-.49c-.3-.18-.56-.35-.78-.5a3.78,3.78,0,0,1-.54-.46,1.67,1.67,0,0,1-.32-.48,1.33,1.33,0,0,1-.11-.54,1.57,1.57,0,0,1,.14-.64,1.91,1.91,0,0,1,.39-.54,2,2,0,0,1,.59-.36,2,2,0,0,1,.75-.14,3.27,3.27,0,0,1,.69.06,2.18,2.18,0,0,1,.46.12c.06,0,.1.05.11.07a.11.11,0,0,1,0,.1l-.11.52a.23.23,0,0,1-.05.12s-.07,0-.12,0l-.27-.07-.3-.07-.29,0h-.26a1,1,0,0,0-.63.3.88.88,0,0,0-.18.57.75.75,0,0,0,.21.45,2.51,2.51,0,0,0,.61.5c.34.2.62.39.84.55a4,4,0,0,1,.51.47,1.29,1.29,0,0,1,.27.46,1.59,1.59,0,0,1,.07.5A1.72,1.72,0,0,1,72.45,46.47Z" transform="translate(-0.51 -1.17)"/><path class="cls-2" d="M78.4,46.92a.13.13,0,0,1-.08,0s0,0,0-.07l-.58-1.47H75.06l-.58,1.47s0,.07,0,.07a.13.13,0,0,1-.08,0h-.74c-.09,0-.13,0-.09-.12l2.35-6a.45.45,0,0,1,0-.08h.93a.14.14,0,0,1,0,.08l2.36,6c0,.08,0,.12-.1.12Zm-3-2.42h2l-1-2.52Z" transform="translate(-0.51 -1.17)"/><path class="cls-2" d="M83.45,46.92a.15.15,0,0,1-.1,0,.38.38,0,0,1-.08-.11l-2.53-4.42v4.42a.23.23,0,0,1,0,.11.14.14,0,0,1-.11,0h-.67a.12.12,0,0,1-.09,0,.14.14,0,0,1,0-.11V40.89a.19.19,0,0,1,0-.13.17.17,0,0,1,.12,0h.74l.1,0s0,0,.08.11l2.53,4.42V40.86s0-.09,0-.11a.23.23,0,0,1,.11,0h.66a.16.16,0,0,1,.1,0s0,.06,0,.11v5.9a.31.31,0,0,1,0,.13.17.17,0,0,1-.12,0Z" transform="translate(-0.51 -1.17)"/><path class="cls-2" d="M92.08,46.85l-.56.12a4.38,4.38,0,0,1-.77.06,3.3,3.3,0,0,1-1.24-.23,2.64,2.64,0,0,1-1-.65,3,3,0,0,1-.62-1,4.16,4.16,0,0,1,0-2.61,2.8,2.8,0,0,1,1.56-1.67,3.35,3.35,0,0,1,1.25-.23,5.43,5.43,0,0,1,.71,0,2.92,2.92,0,0,1,.63.13c.06,0,.1,0,.11.06a.23.23,0,0,1,0,.12v.6c0,.09,0,.13,0,.13l-.14,0a4,4,0,0,0-1.26-.19,2.28,2.28,0,0,0-.89.17,1.9,1.9,0,0,0-.66.49,2.12,2.12,0,0,0-.41.74,3.09,3.09,0,0,0-.14.94,2.61,2.61,0,0,0,.16.94,2.18,2.18,0,0,0,.43.74,1.93,1.93,0,0,0,.66.5,2,2,0,0,0,.85.18,4.87,4.87,0,0,0,.71,0A2.14,2.14,0,0,0,92,46a.28.28,0,0,1,.14,0s0,0,0,.07l0,.58c0,.06,0,.11,0,.13S92.14,46.83,92.08,46.85Z" transform="translate(-0.51 -1.17)"/><path class="cls-2" d="M97,46.58a2.07,2.07,0,0,1-.67.36,2.52,2.52,0,0,1-.79.11,2.27,2.27,0,0,1-1.45-.47,1.89,1.89,0,0,1-.59-.78,3,3,0,0,1-.18-1.09V40.86a.13.13,0,0,1,0-.08.08.08,0,0,1,.07,0h.72a.11.11,0,0,1,.07,0,.19.19,0,0,1,0,.07v3.87a1.61,1.61,0,0,0,.33,1,1.4,1.4,0,0,0,2,0,1.67,1.67,0,0,0,.32-1.06V40.84a.11.11,0,0,1,0-.07.09.09,0,0,1,.07,0h.72a.06.06,0,0,1,.06,0,.13.13,0,0,1,0,.08v3.85a2.78,2.78,0,0,1-.19,1.08A1.89,1.89,0,0,1,97,46.58Z" transform="translate(-0.51 -1.17)"/><path class="cls-2" d="M99,46.92a.09.09,0,0,1-.07,0,.11.11,0,0,1,0-.07v-6a.11.11,0,0,1,0-.07l.07,0h.72l.07,0a.11.11,0,0,1,0,.07v5.22h2.09c.06,0,.09,0,.09.1v.66a.19.19,0,0,1,0,.07.11.11,0,0,1-.07,0Z" transform="translate(-0.51 -1.17)"/><path class="cls-2" d="M104.34,41.61v5.21a.09.09,0,0,1-.1.1h-.71a.09.09,0,0,1-.1-.1V41.61h-1.56a.09.09,0,0,1-.07,0,.11.11,0,0,1,0-.08v-.66a.11.11,0,0,1,0-.07l.07,0h4l.07,0a.11.11,0,0,1,0,.07v.66c0,.07,0,.11-.1.11Z" transform="translate(-0.51 -1.17)"/><path class="cls-2" d="M110.62,46.58a2.07,2.07,0,0,1-.67.36,2.52,2.52,0,0,1-.79.11,2.27,2.27,0,0,1-1.45-.47,1.78,1.78,0,0,1-.58-.78,2.83,2.83,0,0,1-.19-1.09V40.86a.13.13,0,0,1,0-.08.09.09,0,0,1,.07,0h.72a.09.09,0,0,1,.07,0,.11.11,0,0,1,0,.07v3.87a1.61,1.61,0,0,0,.33,1,1.18,1.18,0,0,0,1,.41,1.2,1.2,0,0,0,1-.4,1.67,1.67,0,0,0,.32-1.06V40.84a.11.11,0,0,1,0-.07.09.09,0,0,1,.07,0h.72a.06.06,0,0,1,.06,0,.13.13,0,0,1,0,.08v3.85a2.78,2.78,0,0,1-.19,1.08A1.81,1.81,0,0,1,110.62,46.58Z" transform="translate(-0.51 -1.17)"/><path class="cls-2" d="M115.79,46.92a.29.29,0,0,1-.12,0s0,0-.08-.07l-1.23-2.42h-.92v2.4c0,.07,0,.11-.1.11h-.72a.1.1,0,0,1-.1-.11v-6a.11.11,0,0,1,0-.07l.07,0h1.63a2.12,2.12,0,0,1,1.42.44,1.71,1.71,0,0,1,.52,1.37,1.87,1.87,0,0,1-.26,1,1.61,1.61,0,0,1-.71.63l1.35,2.6c0,.08,0,.12-.1.12Zm-2.35-5.31v2h.66a1.43,1.43,0,0,0,.85-.23.92.92,0,0,0,.31-.78.94.94,0,0,0-.24-.7.92.92,0,0,0-.66-.24Z" transform="translate(-0.51 -1.17)"/><path class="cls-2" d="M121.92,46.92a.13.13,0,0,1-.08,0s0,0,0-.07l-.58-1.47h-2.63L118,46.83s0,.07,0,.07a.13.13,0,0,1-.08,0h-.74c-.09,0-.13,0-.09-.12l2.35-6a.45.45,0,0,1,0-.08h.93s0,0,0,.08l2.36,6c0,.08,0,.12-.1.12Zm-3-2.42h2l-1-2.52Z" transform="translate(-0.51 -1.17)"/><path class="cls-2" d="M123.55,46.92a.09.09,0,0,1-.07,0,.11.11,0,0,1,0-.07v-6a.11.11,0,0,1,0-.07l.07,0h.72l.07,0a.11.11,0,0,1,0,.07v5.22h2.08c.07,0,.1,0,.1.1v.66a.11.11,0,0,1,0,.07.09.09,0,0,1-.07,0Z" transform="translate(-0.51 -1.17)"/><path class="cls-2" d="M133.65,46.85l-.57.12a4.26,4.26,0,0,1-.76.06,3.35,3.35,0,0,1-1.25-.23,2.64,2.64,0,0,1-.95-.65,2.94,2.94,0,0,1-.61-1,3.64,3.64,0,0,1-.22-1.31,3.85,3.85,0,0,1,.21-1.3,2.94,2.94,0,0,1,.61-1,2.74,2.74,0,0,1,1-.66,3.31,3.31,0,0,1,1.25-.23,5.53,5.53,0,0,1,.71,0,2.71,2.71,0,0,1,.62.13c.06,0,.1,0,.11.06a.35.35,0,0,1,0,.12l0,.6c0,.09,0,.13,0,.13l-.14,0a4,4,0,0,0-1.25-.19,2.24,2.24,0,0,0-.89.17,1.9,1.9,0,0,0-.66.49,2,2,0,0,0-.41.74,2.81,2.81,0,0,0-.14.94,2.85,2.85,0,0,0,.15.94,2.18,2.18,0,0,0,.43.74,1.93,1.93,0,0,0,.66.5,2,2,0,0,0,.85.18,4.78,4.78,0,0,0,.71,0,2.33,2.33,0,0,0,.55-.13c.07,0,.11,0,.13,0a.07.07,0,0,1,0,.07l0,.58a.42.42,0,0,1,0,.13A.19.19,0,0,1,133.65,46.85Z" transform="translate(-0.51 -1.17)"/><path class="cls-2" d="M135.12,46.92a.56.56,0,0,1-.19,0,.4.4,0,0,1,0-.21V41c0-.11,0-.18,0-.2a.53.53,0,0,1,.18,0H138a.2.2,0,0,1,.11,0,.31.31,0,0,1,0,.11v.6c0,.06,0,.09,0,.11a.13.13,0,0,1-.1,0h-2.18v1.67h2.08c.08,0,.12,0,.12.13V44c0,.09,0,.13-.12.13h-2.08V46h2.28c.08,0,.11.05.11.14v.61c0,.09,0,.13-.11.13Z" transform="translate(-0.51 -1.17)"/><path class="cls-2" d="M143,46.92a.13.13,0,0,1-.1,0,.38.38,0,0,1-.08-.11l-2.53-4.42v4.42a.23.23,0,0,1,0,.11.14.14,0,0,1-.11,0h-.67a.12.12,0,0,1-.09,0s0,0,0-.11V40.89c0-.07,0-.11,0-.13a.17.17,0,0,1,.12,0h.74l.09,0s0,0,.09.11L143,45.28V40.86a.16.16,0,0,1,0-.11l.1,0h.67a.16.16,0,0,1,.1,0s0,.06,0,.11v5.9a.19.19,0,0,1,0,.13s-.05,0-.11,0Z" transform="translate(-0.51 -1.17)"/><path class="cls-2" d="M147.17,41.61v5.21a.09.09,0,0,1-.1.1h-.71a.09.09,0,0,1-.1-.1V41.61H144.7a.09.09,0,0,1-.07,0,.11.11,0,0,1,0-.08v-.66a.11.11,0,0,1,0-.07l.07,0h4l.07,0a.11.11,0,0,1,0,.07v.66c0,.07,0,.11-.1.11Z" transform="translate(-0.51 -1.17)"/><path class="cls-2" d="M149.81,46.92a.61.61,0,0,1-.19,0,.4.4,0,0,1,0-.21V41a.38.38,0,0,1,0-.2.44.44,0,0,1,.18,0h2.86a.16.16,0,0,1,.1,0,.27.27,0,0,1,0,.11v.6a.14.14,0,0,1,0,.11s-.05,0-.09,0h-2.19v1.67h2.08c.08,0,.12,0,.12.13V44c0,.09,0,.13-.12.13h-2.08V46h2.28c.08,0,.12.05.12.14v.61c0,.09,0,.13-.12.13Z" transform="translate(-0.51 -1.17)"/><path class="cls-2" d="M157.42,46.92l-.13,0s0,0-.07-.07L156,44.41h-.91v2.4a.1.1,0,0,1-.11.11h-.72c-.06,0-.09,0-.09-.11v-6a.19.19,0,0,1,0-.07l.07,0h1.63a2.1,2.1,0,0,1,1.42.44,1.68,1.68,0,0,1,.52,1.37,1.79,1.79,0,0,1-.26,1,1.58,1.58,0,0,1-.7.63l1.34,2.6c0,.08,0,.12-.1.12Zm-2.35-5.31v2h.66a1.42,1.42,0,0,0,.84-.23.92.92,0,0,0,.32-.78,1,1,0,0,0-.25-.7.89.89,0,0,0-.66-.24Z" transform="translate(-0.51 -1.17)"/><polygon class="cls-3" points="30.81 19.88 40.14 10.55 49.46 19.88 60.01 19.88 40.13 0 20.26 19.88 30.81 19.88"/><polygon class="cls-4" points="49.46 20.64 40.13 29.96 30.81 20.64 20.26 20.64 40.13 40.52 60.01 20.64 49.46 20.64"/><polygon class="cls-5" points="25.96 40.89 17.69 49.17 9.41 40.89 0 40.89 17.69 58.58 35.38 40.89 25.96 40.89"/><polygon class="cls-6" points="9.41 40.14 17.69 31.86 25.97 40.14 35.38 40.14 17.69 22.45 0 40.14 9.41 40.14"/><polygon class="cls-7" points="27.31 60.39 33.42 54.28 39.53 60.39 46.58 60.39 33.42 47.23 20.26 60.39 27.31 60.39"/><polygon class="cls-8" points="39.53 61.15 33.42 67.26 27.31 61.15 20.26 61.15 33.42 74.31 46.58 61.15 39.53 61.15"/></g></g></svg>