<svg width="19" height="16" viewBox="0 0 19 16" fill="none" xmlns="http://www.w3.org/2000/svg">
<path d="M5.83903 15.3574C12.8142 15.3574 16.643 9.59525 16.643 4.55339C16.643 4.40176 16.643 4.21221 16.643 4.06058C17.4012 3.52986 18.0456 2.8475 18.5384 2.08933C17.8561 2.3926 17.1358 2.58214 16.3776 2.69586C17.1737 2.24096 17.7424 1.48279 18.0456 0.610886C17.3254 1.02788 16.4914 1.36906 15.6195 1.5207C14.9371 0.80043 13.9515 0.307617 12.8521 0.307617C10.7672 0.307617 9.06127 2.01351 9.06127 4.09849C9.06127 4.40176 9.09918 4.66712 9.17499 4.97039C6.02857 4.81875 3.22333 3.3024 1.3658 0.989973C1.02462 1.5586 0.835078 2.20305 0.835078 2.88541C0.835078 4.21221 1.51743 5.34947 2.54097 6.03183C1.93443 5.99392 1.32789 5.84229 0.835078 5.53902V5.57693C0.835078 7.39654 2.12397 8.9508 3.86777 9.29198C3.5645 9.3678 3.22333 9.44361 2.88215 9.44361C2.6547 9.44361 2.38934 9.40571 2.16188 9.3678C2.6547 10.8841 4.05732 11.9835 5.68739 12.0214C4.3985 13.0449 2.76842 13.6515 0.986713 13.6515C0.683443 13.6515 0.380174 13.6515 0.0769043 13.6136C1.70698 14.7129 3.67823 15.3574 5.83903 15.3574Z" fill="#356C8E"/>
</svg>
