<svg width="19" height="14" viewBox="0 0 19 14" fill="none" xmlns="http://www.w3.org/2000/svg">
<path d="M18.2425 2.58727C18.0523 1.77713 17.3866 1.15761 16.6257 0.966985C15.1515 0.538086 9.34994 0.538086 9.34994 0.538086C9.34994 0.538086 3.54835 0.538086 2.12173 0.91933C1.31331 1.10995 0.695107 1.77713 0.504891 2.53961C0.0769043 4.01693 0.0769043 7.01923 0.0769043 7.01923C0.0769043 7.01923 0.0769043 10.0692 0.457337 11.4988C0.647553 12.309 1.31331 12.9285 2.07417 13.1191C3.5008 13.5004 9.30239 13.5004 9.30239 13.5004C9.30239 13.5004 15.104 13.5004 16.5306 13.1191C17.339 12.9285 17.9572 12.2613 18.1474 11.4988C18.5279 10.0692 18.5279 7.01923 18.5279 7.01923C18.5279 7.01923 18.623 4.01693 18.2425 2.58727Z" fill="#356C8E"/>
<path d="M7.49548 9.83155L12.2984 7.01988L7.49548 4.25586V9.83155Z" fill="white"/>
</svg>
